<svg width="24" height="24" viewBox="0 0 24 24" fill="none" xmlns="http://www.w3.org/2000/svg" class="concept-icon">
    <defs>
        <linearGradient id="genderGradient" x1="0%" y1="100%" x2="100%" y2="0%">
            <stop offset="0%" stop-color="#FFC7C2" /> <stop offset="100%" stop-color="#A2D2FF" /> </linearGradient>
    </defs>
    <path d="M22.515 0.239997H18.61C18.5157 0.239076 18.4234 0.266524 18.3449 0.318775C18.2664 0.371026 18.2055 0.445665 18.17 0.532997C18.1321 0.620625 18.1211 0.717575 18.1386 0.811452C18.156 0.905328 18.2011 0.991865 18.268 1.06L19.176 1.968C19.276 2.064 19.276 2.223 19.176 2.319L17.155 4.379C17.1112 4.41155 17.0581 4.42913 17.0035 4.42913C16.9489 4.42913 16.8958 4.41155 16.852 4.379C15.5834 3.5729 14.0753 3.22983 12.5829 3.40787C11.0904 3.58591 9.70534 4.2741 8.662 5.356C4.662 4.708 1.031 7.787 1.017 11.838C1.01897 13.2405 1.47313 14.605 2.31206 15.7289C3.15099 16.8528 4.32997 17.6763 5.674 18.077C5.778 18.107 5.849 18.203 5.849 18.311V19.082C5.849 19.1467 5.82329 19.2088 5.77753 19.2545C5.73177 19.3003 5.66971 19.326 5.605 19.326H5.175C5.0026 19.2995 4.82652 19.3107 4.65882 19.3586C4.49113 19.4066 4.33578 19.4902 4.20342 19.6038C4.07107 19.7174 3.96484 19.8583 3.892 20.0167C3.81917 20.1752 3.78147 20.3476 3.78147 20.522C3.78147 20.6964 3.81917 20.8688 3.892 21.0273C3.96484 21.1857 4.07107 21.3266 4.20342 21.4402C4.33578 21.5538 4.49113 21.6374 4.65882 21.6854C4.82652 21.7333 5.0026 21.7445 5.175 21.718H5.655C5.789 21.718 5.898 21.828 5.898 21.962V22.441C5.88442 22.6076 5.90551 22.7753 5.95996 22.9333C6.0144 23.0914 6.10101 23.2365 6.21432 23.3594C6.32763 23.4823 6.46519 23.5804 6.61832 23.6476C6.77144 23.7147 6.93681 23.7493 7.104 23.7493C7.27118 23.7493 7.43655 23.7147 7.58968 23.6476C7.7428 23.5804 7.88036 23.4823 7.99368 23.3594C8.10699 23.2365 8.1936 23.0914 8.24804 22.9333C8.30249 22.7753 8.32358 22.6076 8.31 22.441V21.962C8.30884 21.9049 8.32771 21.8493 8.36334 21.8047C8.39897 21.7601 8.44909 21.7294 8.505 21.718H8.993C9.29474 21.6919 9.57572 21.5536 9.78044 21.3304C9.98516 21.1072 10.0987 20.8154 10.0987 20.5125C10.0987 20.2096 9.98516 19.9178 9.78044 19.6946C9.57572 19.4714 9.29474 19.3331 8.993 19.307H8.505C8.44107 19.3045 8.38044 19.278 8.3352 19.2328C8.28997 19.1876 8.26347 19.1269 8.261 19.063V18.506C8.26298 18.4477 8.28575 18.3921 8.32518 18.3492C8.36462 18.3063 8.41812 18.2789 8.476 18.272C9.874 18.0616 11.1675 17.4078 12.166 16.407C16.16 17.005 19.764 13.943 19.82 9.905C19.835 8.66474 19.4965 7.44587 18.844 6.391C18.8106 6.34945 18.7925 6.29777 18.7925 6.2445C18.7925 6.19122 18.8106 6.13954 18.844 6.098L20.904 4.038C20.9264 4.01355 20.9535 3.994 20.9838 3.98058C21.0141 3.96715 21.0469 3.96015 21.08 3.96C21.146 3.963 21.209 3.99 21.255 4.038L22.153 4.936C22.2212 5.00303 22.3076 5.04854 22.4015 5.06687C22.4953 5.08521 22.5925 5.07556 22.681 5.03912C22.7694 5.00269 22.8451 4.94107 22.8988 4.86194C22.9525 4.7828 22.9818 4.68963 22.983 4.594V0.689997C22.9753 0.570187 22.9229 0.45762 22.8363 0.374502C22.7497 0.291384 22.635 0.24375 22.515 0.240997M13.728 13.997C14.0247 13.154 14.1457 12.2592 14.0836 11.3677C14.0215 10.4761 13.7776 9.60675 13.367 8.813C13.2943 8.67011 13.194 8.54305 13.0719 8.43919C12.9498 8.33533 12.8083 8.25672 12.6556 8.20793C12.5029 8.15913 12.342 8.14112 12.1823 8.15492C12.0226 8.16873 11.8672 8.21408 11.7251 8.28835C11.5831 8.36262 11.4572 8.46434 11.3547 8.58762C11.2522 8.71089 11.1752 8.85327 11.1281 9.00651C11.081 9.15975 11.0648 9.32081 11.0804 9.48036C11.096 9.63991 11.1431 9.79478 11.219 9.936C11.539 10.536 11.699 11.208 11.688 11.888C11.684 15.052 8.257 17.026 5.518 15.441C2.779 13.856 2.784 9.901 5.526 8.321C6.04975 8.01947 6.63368 7.83747 7.236 7.788C6.97705 8.46512 6.83503 9.18131 6.816 9.906C6.81492 11.1919 7.19529 12.4493 7.909 13.519C8.09468 13.7658 8.36772 13.9323 8.67218 13.9843C8.97664 14.0363 9.28946 13.9699 9.54655 13.7988C9.80364 13.6276 9.98554 13.3646 10.055 13.0636C10.1244 12.7626 10.0761 12.4465 9.92 12.18C8.166 9.547 9.92 6.002 13.077 5.799C16.234 5.596 18.427 8.887 17.025 11.723C16.7115 12.3569 16.2397 12.8991 15.6553 13.2973C15.0709 13.6955 14.3936 13.9361 13.689 13.996L13.728 13.997Z" fill="url(#genderGradient)"/>
</svg>