<svg width="16" height="16" viewBox="0 0 16 16" fill="none" xmlns="http://www.w3.org/2000/svg">
<path d="M13.5 1.75H10.5C10.3011 1.75 10.1103 1.82902 9.96967 1.96967C9.82902 2.11032 9.75 2.30109 9.75 2.5C9.75 2.69891 9.82902 2.88968 9.96967 3.03033C10.1103 3.17098 10.3011 3.25 10.5 3.25H11.6875L9.6425 5.29625C8.5794 4.50174 7.25483 4.13936 5.93533 4.28202C4.61583 4.42468 3.39932 5.0618 2.53059 6.06517C1.66187 7.06854 1.2054 8.3637 1.25303 9.69003C1.30067 11.0164 1.84888 12.2754 2.78734 13.2139C3.72581 14.1524 4.98488 14.7006 6.31122 14.7482C7.63756 14.7959 8.93272 14.3394 9.93609 13.4707C10.9395 12.6019 11.5766 11.3854 11.7192 10.0659C11.8619 8.74642 11.4995 7.42186 10.705 6.35875L12.75 4.3125V5.5C12.75 5.69891 12.829 5.88968 12.9697 6.03033C13.1103 6.17098 13.3011 6.25 13.5 6.25C13.6989 6.25 13.8897 6.17098 14.0303 6.03033C14.171 5.88968 14.25 5.69891 14.25 5.5V2.5C14.25 2.30109 14.171 2.11032 14.0303 1.96967C13.8897 1.82902 13.6989 1.75 13.5 1.75ZM9.15063 12.1538C8.62612 12.678 7.95793 13.035 7.23055 13.1796C6.50316 13.3242 5.74924 13.2498 5.0641 12.966C4.37897 12.6821 3.79339 12.2014 3.3814 11.5848C2.96941 10.9681 2.74952 10.2432 2.74952 9.50156C2.74952 8.75995 2.96941 8.03498 3.3814 7.41833C3.79339 6.80168 4.37897 6.32103 5.0641 6.03716C5.74924 5.75329 6.50316 5.67894 7.23055 5.82351C7.95793 5.96808 8.62612 6.32508 9.15063 6.84937C9.85269 7.55349 10.2469 8.50724 10.2469 9.50156C10.2469 10.4959 9.85269 11.4496 9.15063 12.1538Z" fill="#FFAAE6"/>
</svg>
