<svg width="24" height="25" viewBox="0 0 24 25" fill="none" xmlns="http://www.w3.org/2000/svg">
<path d="M19.75 7.76315C19.7525 6.29185 19.3361 4.85023 18.5496 3.60683C17.763 2.36342 16.6387 1.36961 15.3082 0.74156C13.9777 0.113512 12.4959 -0.122819 11.036 0.0601945C9.57612 0.243208 8.1985 0.838004 7.06418 1.77505C5.92986 2.7121 5.08572 3.95268 4.63042 5.35176C4.17512 6.75085 4.12749 8.25063 4.4931 9.67579C4.8587 11.1009 5.62243 12.3926 6.695 13.3997C7.76758 14.4069 9.10468 15.0879 10.55 15.3631C10.6056 15.378 10.6551 15.4103 10.6911 15.4553C10.727 15.5003 10.7477 15.5556 10.75 15.6131V18.2631C10.75 18.3295 10.7237 18.393 10.6768 18.4399C10.6299 18.4868 10.5663 18.5131 10.5 18.5131H9C8.66848 18.5131 8.35054 18.6448 8.11612 18.8793C7.8817 19.1137 7.75 19.4316 7.75 19.7631C7.75 20.0947 7.8817 20.4126 8.11612 20.647C8.35054 20.8815 8.66848 21.0131 9 21.0131H10.5C10.5663 21.0131 10.6299 21.0395 10.6768 21.0864C10.7237 21.1333 10.75 21.1968 10.75 21.2631V22.7631C10.75 23.0947 10.8817 23.4126 11.1161 23.647C11.3505 23.8815 11.6685 24.0131 12 24.0131C12.3315 24.0131 12.6495 23.8815 12.8839 23.647C13.1183 23.4126 13.25 23.0947 13.25 22.7631V21.2631C13.25 21.1968 13.2763 21.1333 13.3232 21.0864C13.3701 21.0395 13.4337 21.0131 13.5 21.0131H15C15.3315 21.0131 15.6495 20.8815 15.8839 20.647C16.1183 20.4126 16.25 20.0947 16.25 19.7631C16.25 19.4316 16.1183 19.1137 15.8839 18.8793C15.6495 18.6448 15.3315 18.5131 15 18.5131H13.5C13.4337 18.5131 13.3701 18.4868 13.3232 18.4399C13.2763 18.393 13.25 18.3295 13.25 18.2631V15.6131C13.2523 15.5556 13.273 15.5003 13.309 15.4553C13.3449 15.4103 13.3944 15.378 13.45 15.3631C15.2198 15.0261 16.8168 14.083 17.9666 12.696C19.1163 11.309 19.7469 9.56473 19.75 7.76315ZM6.75 7.76315C6.75 6.7248 7.05791 5.70976 7.63479 4.84641C8.21167 3.98305 9.0316 3.31014 9.99092 2.91278C10.9502 2.51542 12.0058 2.41145 13.0242 2.61403C14.0426 2.8166 14.9781 3.31661 15.7123 4.05084C16.4465 4.78506 16.9466 5.72052 17.1491 6.73892C17.3517 7.75732 17.2477 8.81292 16.8504 9.77224C16.453 10.7315 15.7801 11.5515 14.9167 12.1284C14.0534 12.7052 13.0384 13.0131 12 13.0131C10.6084 13.0105 9.27461 12.4565 8.29061 11.4725C7.30662 10.4885 6.75265 9.15472 6.75 7.76315Z" fill="#FFC7C2"/>
</svg>
